<svg xmlns="http://www.w3.org/2000/svg" viewBox="0 0 230 56.1"><defs><style>.cls-1{font-size:7.09px;font-family:Raleway-Regular, Raleway Regular;letter-spacing:0.3em;}.cls-1,.cls-4{fill:#fff;}.cls-2{letter-spacing:0.22em;}.cls-3{letter-spacing:0.31em;}</style></defs><title>Asset 2</title><g id="Layer_2" data-name="Layer 2"><g id="Layer_1-2" data-name="Layer 1"><text class="cls-1" transform="translate(25.52 54.33)">DIGI<tspan class="cls-2" x="21.2" y="0">T</tspan><tspan x="26.31" y="0">AL MEDIA &amp; ENTE</tspan><tspan class="cls-3" x="109.8" y="0">R</tspan><tspan class="cls-2" x="115.81" y="0">T</tspan><tspan x="120.93" y="0">AINMENT</tspan></text><path class="cls-4" d="M27.77,14.39a10.25,10.25,0,0,1,7.58,2.72q3.18,3,3.18,8.71V40H33V25.64a6.42,6.42,0,0,0-1.38-4.41,5.09,5.09,0,0,0-4.38-1.45,8,8,0,0,0-5.61,2.86A13.51,13.51,0,0,1,22,25.89V40h-5.5V25.79a6.48,6.48,0,0,0-1.27-4.38q-1.41-1.62-4.48-1.52A7.53,7.53,0,0,0,5.5,22.36q0,5.89,0,17.68H0V15.34H4.8l.35,1.76a10.22,10.22,0,0,1,2.61-1.66,9.22,9.22,0,0,1,3.39-1,9.42,9.42,0,0,1,8,3.39A14.14,14.14,0,0,1,27.77,14.39Z"/><path class="cls-4" d="M62.12,18.22a12.62,12.62,0,0,1,3.67,9.4v.77c0,.16,0,.43,0,.79a6.9,6.9,0,0,1-.05.76H46.21a5.83,5.83,0,0,0,2.19,3.92A7.49,7.49,0,0,0,53,35.38,7.46,7.46,0,0,0,59.06,33l6.31.21q-.25.56-.6,1.23a11.83,11.83,0,0,1-4.89,4.69A14.51,14.51,0,0,1,53,40.81a12.44,12.44,0,0,1-9.07-3.6,12.6,12.6,0,0,1-3.67-9.42A12.76,12.76,0,0,1,44,18.31a12.5,12.5,0,0,1,9.12-3.71A12.33,12.33,0,0,1,62.12,18.22Zm-14,3.51a8.05,8.05,0,0,0-1.94,3.39H60a6.91,6.91,0,0,0-1.94-3.39,7.22,7.22,0,0,0-4.94-1.8A7.4,7.4,0,0,0,48.12,21.73Z"/><path class="cls-4" d="M70.78,37a14.41,14.41,0,0,1-3.26-9.69,12.57,12.57,0,0,1,3.83-9.56,12.37,12.37,0,0,1,9.37-3.42A14.78,14.78,0,0,1,86.92,16V0h5.61V40H87.84l-.35-1.45a14,14,0,0,1-7.83,2.29A11.26,11.26,0,0,1,70.78,37ZM84.4,34.83a7.24,7.24,0,0,0,2.52-1.75V22.4a6.64,6.64,0,0,0-2.45-1.71A8.42,8.42,0,0,0,81,19.93a7.76,7.76,0,0,0-5.57,2,7.65,7.65,0,0,0-2.15,5.82,7.65,7.65,0,0,0,2.15,5.82,7.76,7.76,0,0,0,5.57,2A8.48,8.48,0,0,0,84.4,34.83Z"/><path class="cls-4" d="M101.31,6.91v5.65H95.66V6.91Zm0,7.66V40H95.66V14.57Z"/><path class="cls-4" d="M120.85,15.2a9,9,0,0,1,4.06,2.36q3,3.6,3,9.84V40h-4.87l-.35-1.34a14.66,14.66,0,0,1-3.1,1.43,12.29,12.29,0,0,1-3.85.79,13.17,13.17,0,0,1-7.9-1.94,7.13,7.13,0,0,1-3.53-6A7.51,7.51,0,0,1,107.86,26a11.75,11.75,0,0,1,7.87-1.94,12.54,12.54,0,0,1,6.46,2.44,8.12,8.12,0,0,0-.63-3.56,5.76,5.76,0,0,0-1.73-2.22,5.59,5.59,0,0,0-2-1,10.16,10.16,0,0,0-2.12-.32,12,12,0,0,0-7.8,2.82,16.41,16.41,0,0,0-1.27-1.83,18.69,18.69,0,0,1-1.27-1.8,13.78,13.78,0,0,1,4.44-2.77,17.66,17.66,0,0,1,6-1.29A15.17,15.17,0,0,1,120.85,15.2Zm-1.46,14.68a11.29,11.29,0,0,0-3.9-1,7.54,7.54,0,0,0-4,.79,2.94,2.94,0,0,0-1.62,3.12,3.29,3.29,0,0,0,1.92,2.61,7.43,7.43,0,0,0,3.93.92,11.67,11.67,0,0,0,6.7-2v-2A7.73,7.73,0,0,0,119.38,29.88Z"/><path class="cls-4" d="M132.33,40V15.38h4.87l.35,1.73a10.8,10.8,0,0,1,6.85-2.58,10.37,10.37,0,0,1,8,2.63,10.52,10.52,0,0,1,3.1,8.06V40H150V25.82a5.68,5.68,0,0,0-1.52-4.3,5.86,5.86,0,0,0-4.83-1.59,10.11,10.11,0,0,0-3.41.86,6.49,6.49,0,0,0-2.35,1.61V40Z"/><path class="cls-4" d="M183.09,27.73a12.73,12.73,0,0,1-3.78,9.49,13.12,13.12,0,0,1-18.28,0,12.72,12.72,0,0,1-3.78-9.49A12.78,12.78,0,0,1,161,18.22a13.06,13.06,0,0,1,18.28,0A12.73,12.73,0,0,1,183.09,27.73ZM170.18,20A7.31,7.31,0,0,0,164.88,22a7.63,7.63,0,0,0-2.08,5.75,7.63,7.63,0,0,0,2.08,5.75,8.31,8.31,0,0,0,10.58,0,7.63,7.63,0,0,0,2.08-5.75A7.63,7.63,0,0,0,175.47,22,7.31,7.31,0,0,0,170.18,20Z"/><path class="cls-4" d="M187,15.38l6.74,16.51,6.74-16.51h6.07L196.31,40h-5.15L180.93,15.38Z"/><path class="cls-4" d="M222.91,15.2A9,9,0,0,1,227,17.56q3,3.6,3,9.84V40h-4.87l-.35-1.34a14.67,14.67,0,0,1-3.1,1.43,12.29,12.29,0,0,1-3.85.79,13.17,13.17,0,0,1-7.9-1.94,7.13,7.13,0,0,1-3.53-6A7.51,7.51,0,0,1,209.92,26a11.75,11.75,0,0,1,7.87-1.94,12.54,12.54,0,0,1,6.46,2.44,8.12,8.12,0,0,0-.63-3.56,5.76,5.76,0,0,0-1.73-2.22,5.6,5.6,0,0,0-2-1,10.16,10.16,0,0,0-2.12-.32,12,12,0,0,0-7.8,2.82,16.36,16.36,0,0,0-1.27-1.83,18.78,18.78,0,0,1-1.27-1.8,13.78,13.78,0,0,1,4.44-2.77,17.66,17.66,0,0,1,6-1.29A15.17,15.17,0,0,1,222.91,15.2Zm-1.46,14.68a11.29,11.29,0,0,0-3.9-1,7.54,7.54,0,0,0-4,.79,2.94,2.94,0,0,0-1.62,3.12,3.29,3.29,0,0,0,1.92,2.61,7.43,7.43,0,0,0,3.93.92,11.67,11.67,0,0,0,6.7-2v-2A7.72,7.72,0,0,0,221.45,29.88Z"/><polygon class="cls-4" points="167.71 25.11 167.71 30.33 174.06 27.72 167.71 25.11"/></g></g></svg>