<svg xmlns="http://www.w3.org/2000/svg" viewBox="0 0 1002.9 579.41"><defs><style>.cls-1,.cls-2{fill:none;stroke:#494949;stroke-miterlimit:10;}.cls-1{stroke-width:2.9px;}.cls-2{stroke-width:2.18px;}.cls-3{font-size:55.66px;fill:#fff;font-family:QuantifyBold, QuantifyBold;}.cls-4{letter-spacing:-0.04em;}</style></defs><title>client-logo</title><g id="Layer_2" data-name="Layer 2"><g id="Layer_1-2" data-name="Layer 1"><rect class="cls-1" x="122.19" y="36.26" width="758.52" height="474.26"/><path class="cls-1" d="M125.87,1.45H877a30.14,30.14,0,0,1,30.14,30.14v513a0,0,0,0,1,0,0H95.72a0,0,0,0,1,0,0v-513A30.14,30.14,0,0,1,125.87,1.45Z"/><rect class="cls-1" x="1.45" y="544.6" width="1000" height="21.03"/><path class="cls-1" d="M1.45,565.63S17.4,578,45.69,578H965.19s23.21-2.18,36.26-12.33"/><circle class="cls-2" cx="501.45" cy="19.22" r="4.35"/><path class="cls-1" d="M451.45,544.6a8.73,8.73,0,0,0,8.67,8h82.67a8.73,8.73,0,0,0,8.67-8Z"/><circle cx="488.95" cy="270.96" r="163.5"/><text class="cls-3" transform="translate(375.21 304.56)"><tspan class="cls-4">L</tspan><tspan x="24.1" y="0">OGO</tspan></text></g></g></svg>