<svg xmlns="http://www.w3.org/2000/svg" viewBox="0 0 24 24" version="1.1">
    <path d="M11.376 1.130952C10.053984 1.283088 8.735256 2.01012 7.920552000000001 3.036C6.760464 4.496784000000001 6.417216000000001 6.3877440000000005 6.999168 8.112C7.277856000000001 8.937744 7.795848 9.730704000000001 8.427 10.297824C8.550744 10.409016000000001 8.651256 10.516200000000001 8.650368 10.536C8.648856 10.569456 5.828256 15.467136000000002 5.784312 15.512592C5.773296 15.523992 5.72328 15.518640000000001 5.672208 15.500592C5.6077200000000005 15.477792 5.457336000000001 15.468383999999999 5.172 15.469272C4.79688 15.470424 4.7466 15.475871999999999 4.548 15.536712000000001C3.7799280000000004 15.772032000000001 3.2200320000000002 16.345319999999997 2.995248 17.12652C2.948712 17.288232 2.9407200000000002 17.372304 2.9407200000000002 17.7C2.9407200000000002 18.027696 2.948712 18.111768 2.995248 18.27348C3.2200320000000002 19.05468 3.7799280000000004 19.627968 4.548 19.863288C4.74672 19.924176 4.79664 19.929552 5.172 19.930584C5.5557360000000005 19.93164 5.59284 19.927656 5.795808 19.863312C6.2116560000000005 19.731504 6.514776 19.547328 6.79488 19.256232C7.083336 18.956471999999998 7.297128000000001 18.555623999999998 7.377936 18.163008C7.427327999999999 17.922984000000003 7.427327999999999 17.477016 7.377936 17.236992C7.333152 17.019408000000002 7.20624 16.700952 7.0950239999999996 16.52712L7.016112000000001 16.403736000000002 8.63424 13.60788C9.524232000000001 12.070152 10.289208 10.736712 10.334208 10.644672C10.40568 10.498488 10.416 10.454039999999999 10.416 10.292784C10.416 10.131168 10.406208 10.089264 10.337352000000001 9.956088C10.255320000000001 9.797424 10.23072 9.775511999999999 9.775728 9.456288C9.525936 9.281016000000001 9.096456 8.847456000000001 8.9076 8.579903999999999C8.731704 8.330712 8.501112000000001 7.8733200000000005 8.412384000000001 7.5975600000000005C8.276232 7.1744639999999995 8.246184 6.963024 8.245056 6.42C8.24412 5.9763839999999995 8.250744000000001 5.88588 8.300256 5.6646C8.382528 5.296992 8.481 5.016888000000001 8.642136 4.692C9.193584 3.580104 10.232232 2.827224 11.472 2.640768C11.703312 2.605968 12.248376 2.605944 12.48 2.640696C13.526280000000002 2.797728 14.512344 3.415848 15.084552 4.273392C15.607344000000001 5.056920000000001 15.830496000000002 6.153528 15.660552000000001 7.104C15.612143999999999 7.37472 15.614496 7.5104880000000005 15.6702 7.6570800000000006C15.740664 7.842528 15.865224000000001 7.977767999999999 16.048776 8.068128000000002C16.26024 8.17224 16.479672 8.177832 16.68 8.084256C16.82748 8.015352 16.97448 7.879344 17.040384 7.7508C17.19708 7.445232000000001 17.270112 6.33336 17.175984000000003 5.6866080000000006C17.01288 4.56588 16.588224 3.644736 15.860664 2.833488C15.029688 1.9069440000000002 13.784472 1.267584 12.540000000000001 1.128528C12.285576 1.100112 11.632224 1.101456 11.376 1.130952M11.747448 3.9629280000000002C11.348304 3.996864 10.904088 4.177632 10.572744 4.440936C10.185576000000001 4.748616 9.92352 5.155488 9.787248 5.660496C9.714048 5.9318159999999995 9.713952 6.437784 9.787080000000001 6.729048000000001C9.990672 7.540104 10.588080000000001 8.1456 11.416416000000002 8.380464C11.568456000000001 8.423568000000001 11.667984 8.433864 11.941656 8.434824L12.279312 8.436 14.029536 11.38368C14.992176 13.00488 15.809904 14.367912 15.846744 14.412576C15.883584 14.457264 15.982944000000002 14.527920000000002 16.067568 14.569584C16.199351999999998 14.634456 16.247664 14.645328 16.403976 14.645328C16.581623999999998 14.645328 16.59564 14.640816000000001 16.927248000000002 14.476992C17.306448 14.289648000000001 17.453376000000002 14.231952000000001 17.728536 14.162351999999998C18.635976 13.932768000000001 19.59432 14.032728 20.412 14.442264C21.144000000000002 14.808888000000001 21.797520000000002 15.487368 22.143072 16.239552C22.383576 16.763064 22.487136000000003 17.235072000000002 22.487160000000003 17.808C22.487184 18.59676 22.238904 19.349928 21.767232 19.992C20.643888 21.521136000000002 18.699576 22.018584 17.052 21.198384C16.74432 21.045216 16.490592 20.870976000000002 16.187664 20.60484C15.851448 20.309424 15.785592 20.274648000000003 15.536448 20.260968000000002C15.365736000000002 20.251608 15.324456 20.257776 15.211344 20.309544C15.028128 20.393424 14.916504 20.500680000000003 14.830368 20.675664C14.767848 20.802696 14.755776 20.855184 14.755776 21C14.755776 21.315383999999998 14.904863999999998 21.52428 15.426912 21.940392C16.173456 22.535448 17.045688 22.91448 17.988 23.053296C18.3096 23.100672 19.000056 23.107224000000002 19.32 23.065920000000002C20.470560000000003 22.917432 21.514656 22.411968 22.357560000000003 21.595416C23.285328 20.696664000000002 23.816976 19.6242 23.979336 18.324C24.008688 18.088800000000003 24.030168 17.246976 24.003816 17.363712000000003C23.992104 17.415623999999998 23.979456 17.358456 23.958047999999998 17.156807999999998C23.941776 17.003568 23.891904 16.733688 23.84724 16.557096C23.408687999999998 14.823408000000002 22.117944 13.406880000000001 20.450784 12.829656C19.839168 12.617904 19.395696 12.544296 18.72 12.542352C18.016344 12.540336 17.592552 12.608376000000002 16.945224000000003 12.827256000000002C16.807296 12.873888 16.687584 12.903936 16.679232 12.894024C16.652856 12.862800000000002 13.6566 7.805472 13.642128000000001 7.767744C13.633895999999998 7.746312 13.671792 7.678464 13.736088 7.599528C13.939848 7.3493759999999995 14.096952000000002 7.019712 14.175648 6.677136C14.237400000000001 6.408288 14.231784 5.958552 14.163167999999999 5.676C14.094864 5.394768 13.910856 5.0200320000000005 13.72824 4.790232C13.37796 4.349424 12.775104 4.0152 12.252 3.9717360000000004C12.1596 3.9640560000000002 12.057 3.954792 12.024000000000001 3.951144C11.991 3.9474960000000006 11.86656 3.9528 11.747448 3.9629280000000002M11.811528000000001 5.472816C11.382912000000001 5.56116 11.124216 6.046104 11.281464 6.466392C11.338656 6.6192720000000005 11.488968 6.785976000000001 11.643288 6.867719999999999C11.794296 6.947688 12.129216000000001 6.948312 12.295079999999999 6.868896C12.536280000000001 6.753431999999999 12.694944000000001 6.516408 12.71376 6.243431999999999C12.747264 5.757672 12.296664 5.372808 11.811528000000001 5.472816M3.504 12.757152C1.960512 13.274111999999999 0.674352 14.640984000000001 0.207936 16.26C0.050016000000000005 16.808136 0.037032 16.918128 0.036504 17.712C0.035928 18.557736000000002 0.058176 18.717792 0.263472 19.344C0.51636 20.115312000000003 0.900888 20.758128000000003 1.45428 21.334704000000002C1.8960240000000002 21.794928 2.369424 22.140192000000003 2.936112 22.4154C3.690552 22.781807999999998 4.39872 22.944 5.244 22.944C6.445512 22.944 7.509912000000001 22.585272 8.47128 21.856344C9.468264000000001 21.100392 10.211808000000001 19.869792 10.419912 18.631224000000003L10.44936 18.456 13.499328 18.456L16.549319999999998 18.456 16.616112 18.609336C16.772472 18.968232 17.096304 19.354512 17.418912000000002 19.566936C17.859192 19.856856 18.245856 19.960944 18.792 19.936632C19.148496 19.920768000000002 19.359816 19.867464000000002 19.668 19.71564C20.272752 19.417752 20.704439999999998 18.8748 20.872488 18.200712000000003C20.929152000000002 17.97348 20.929152000000002 17.42652 20.872488 17.199288C20.704439999999998 16.525199999999998 20.272752 15.982248 19.668 15.68436C19.359816 15.532536 19.148496 15.479232 18.792 15.463368000000001C18.245856 15.439056 17.859192 15.543144 17.418912000000002 15.833064C17.096448 16.045392 16.772472 16.431768 16.61628 16.790280000000003L16.549656 16.943208 13.05684 16.949616000000002L9.564 16.956 9.428136 17.02272C9.353424 17.059416 9.252312 17.133696 9.203448 17.187768000000002C9.053735999999999 17.353488000000002 9.019919999999999 17.462808 8.9856 17.892C8.949168 18.347687999999998 8.906496 18.572616 8.79204 18.912C8.341056 20.249208 7.193207999999999 21.198936 5.775024 21.408288C5.529264 21.444576 4.986888 21.444456 4.728 21.408072C3.89256 21.290664 3.145272 20.911968 2.566608 20.312712C2.255712 19.990776 2.087664 19.752864 1.8858000000000001 19.34892C1.4173680000000002 18.411552 1.384392 17.230104 1.7997599999999998 16.266648C2.163336 15.423336 2.853912 14.692775999999999 3.631656 14.328719999999999C3.766032 14.265816000000001 3.9678 14.184312 4.08 14.14764C4.4173919999999995 14.037287999999998 4.577568 13.89144 4.669296 13.611024C4.785744 13.254959999999999 4.5732479999999995 12.833231999999999 4.208640000000001 12.696792C4.008408 12.621888 3.873264 12.633456 3.504 12.757152M5.016 16.97796C4.835088 17.017152 4.752672 17.065512000000002 4.6253280000000006 17.207136000000002C4.495704 17.351328 4.44 17.499456000000002 4.44 17.7C4.44 17.900616000000003 4.495704 18.048696 4.625496 18.193056C4.752672 18.334488 4.858728 18.394368 5.040768000000001 18.427536C5.501232 18.511392 5.911992 18.168384 5.911992 17.7C5.911992 17.222424 5.48304 16.876752 5.016 16.97796M18.550079999999998 16.969512C18.321768000000002 17.005512 18.090024 17.182752 17.991936 17.396424C17.9532 17.480784 17.94072 17.554824 17.94072 17.7C17.94072 17.929896 17.993664 18.065664 18.140591999999998 18.212592C18.5124 18.584400000000002 19.097784 18.490655999999998 19.3488 18.01908C19.426992 17.872176 19.428168 17.52996 19.350984 17.385216C19.182888000000002 17.07 18.886968 16.9164 18.550079999999998 16.969512" stroke="none" fill="#fff" fill-rule="evenodd" stroke-width="0.024"></path>
</svg>