<svg xmlns="http://www.w3.org/2000/svg" viewBox="0 0 24 24" version="1.1">
    <path d="M11.484 0.30304800000000004C10.53948 0.37780800000000003 9.804816 0.5285040000000001 8.94 0.824808C6.9983759999999995 1.490088 5.269704 2.833704 4.11888 4.572C3.263688 5.863752000000001 2.7786000000000004 7.184280000000001 2.57604 8.772C2.543064 9.030479999999999 2.533056 9.282432 2.5326000000000004 9.864C2.532 10.635072 2.547768 10.859592000000001 2.64312 11.436C2.938968 13.224696 3.7423919999999997 14.908488 4.933632 16.236288C5.169744000000001 16.499472 5.2687919999999995 16.548096 5.5680000000000005 16.547688C5.830944 16.547328 5.935536 16.50648 6.09552 16.341624C6.249719999999999 16.182744 6.3 16.05348 6.3 15.816C6.3 15.559464000000002 6.262344 15.478728 5.997672 15.168000000000001C4.959072 13.948560000000002 4.347888 12.611256000000001 4.100136 11.016C4.052688 10.71048 4.045968 10.574232 4.045056000000001 9.9C4.043976 9.115872 4.055232 8.96304 4.154712 8.412C4.610712 5.8861680000000005 6.3078 3.674424 8.632608000000001 2.576088C9.431928000000001 2.1984719999999998 10.193952 1.977768 11.16 1.844064C11.51436 1.7950320000000002 12.747888000000001 1.8024719999999999 13.128 1.855944C14.616072 2.065296 15.921024 2.61144 17.088 3.513264C17.39628 3.751488 18.166032 4.51344 18.412152 4.824C19.222752 5.846832 19.770504 7.022640000000001 20.025216 8.286648C20.139528000000002 8.85384 20.171208 9.203112 20.170512 9.888C20.169864 10.52196 20.15616 10.695599999999999 20.062656 11.256C19.828152 12.661464 19.179648 14.035824000000002 18.228 15.144216C18.1356 15.251832000000002 18.031416 15.382176 17.996472 15.433872C17.92308 15.542448 17.873808 15.782015999999999 17.895648 15.924C17.919672000000002 16.080023999999998 18.018743999999998 16.263312000000003 18.13392 16.364688C18.29448 16.506 18.393096 16.545312000000003 18.612000000000002 16.555248000000002C18.910848 16.568832 19.052784 16.491024 19.34772 16.152C21.94056 13.171368000000001 22.426704 8.856456 20.56272 5.367744C20.081784 4.4676 19.520256000000003 3.723144 18.776616 2.9998080000000003C17.239895999999998 1.5049919999999999 15.344327999999999 0.607032 13.176 0.346704C12.867312000000002 0.309648 11.761224 0.281112 11.484 0.30304800000000004M11.616 2.3396879999999998C11.029584 2.4706799999999998 10.527168 2.775264 10.170288000000001 3.21612C9.980928 3.4500719999999996 9.769776 3.856992 9.696456 4.129344000000001C9.562704 4.626215999999999 9.593736 5.21448 9.778512 5.684664C10.073112 6.434232000000001 10.695216 6.986472 11.4918 7.205544C11.745312 7.275264000000001 12.4344 7.281432 12.672 7.216104C13.417608000000001 7.01112 13.954536 6.593832 14.302104000000002 5.949288C14.962584000000001 4.7244 14.455608 3.1646639999999997 13.197096 2.549832C12.833207999999999 2.3720399999999997 12.622032 2.32356 12.168000000000001 2.313576C11.881632 2.307264 11.7288 2.314488 11.616 2.3396879999999998M11.928 3.8192399999999997C11.744592 3.8493120000000003 11.556023999999999 3.949872 11.409888 4.095576C10.793448 4.71 11.227632 5.764248 12.096 5.76156C12.305304 5.760912 12.46752 5.716416 12.621984000000001 5.6172960000000005C13.071935999999999 5.3285279999999995 13.215672000000001 4.742928 12.948504 4.287024000000001C12.862775999999998 4.1407680000000004 12.67164 3.96816 12.516936 3.897336C12.404376000000001 3.845808 12.155664 3.786984 12.084 3.794952C12.0708 3.7964160000000002 12.0006 3.8073599999999996 11.928 3.8192399999999997M7.788 7.04532C7.423608000000001 7.136520000000001 6.991272 7.42092 6.775368 7.7114400000000005C6.47556 8.11488 6.344136 8.682768 6.442848 9.148463999999999C6.541368 9.61332 6.8234639999999995 10.033056 7.212096000000001 10.292976000000001C7.495488000000001 10.482528 7.44876 10.469592 9.57 10.946064L9.792 10.995936 9.792 11.341728L9.792 11.687520000000001 9.176568000000001 12.965760000000001C8.275968 14.836272000000001 8.303712 14.76552 8.304359999999999 15.18984C8.30592 16.198152 9.094224 16.993560000000002 10.092 16.993560000000002C10.64832 16.993560000000002 11.191343999999999 16.733616 11.508696 16.315416C11.571888 16.232136 11.731392 15.943296 11.863128000000001 15.673536L12.102648 15.183072000000001 12.32328 15.63888C12.444624 15.889584000000001 12.58788 16.159464 12.64164 16.238616C12.953136000000002 16.697328 13.517952000000001 16.992096 14.088000000000001 16.99344C14.524704000000002 16.994472 14.861640000000001 16.88256 15.209832000000002 16.620816C15.770591999999999 16.19928 16.036824 15.406392 15.842808 14.735591999999999C15.785568 14.537688 15.795336 14.558928 15.051167999999999 13.013784L14.424 11.711592 14.424 11.35224C14.424 10.999368 14.424959999999999 10.992696 14.478 10.980192C14.507688 10.973184 14.967096000000002 10.870128000000001 15.498888 10.751136C16.030656 10.632168 16.516656 10.517784 16.578888000000003 10.496952C16.898112 10.390080000000001 17.206752 10.172424 17.395824 9.920784C17.675952000000002 9.54804 17.784264 9.241871999999999 17.785272 8.82C17.787167999999998 8.035032000000001 17.343816 7.3908 16.608 7.109376C16.382568 7.023143999999999 16.224576 7.000871999999999 15.933048 7.01424C15.693432000000001 7.025208 15.455736000000002 7.0727519999999995 13.992 7.402583999999999C13.0746 7.609296 12.2538 7.784568000000001 12.168000000000001 7.792104C12.026976000000001 7.804463999999999 11.845056 7.768344 10.272 7.415448C8.60904 7.042416000000001 8.518728 7.024776 8.232 7.017216C8.021592 7.011648 7.888992000000001 7.020048 7.788 7.04532M8.142144 8.521368C7.862400000000001 8.580696 7.847328 8.982216000000001 8.121528 9.070608C8.162495999999999 9.083808000000001 8.776056 9.224088 9.484992 9.382296C10.207008 9.543456 10.816368 9.691608 10.87032 9.719136C11.013864 9.79236 11.118216 9.893616 11.197296 10.036344L11.268 10.164 11.268 11.136000000000001L11.268 12.108 10.542 13.612079999999999C9.745968 15.261263999999999 9.753168 15.241920000000002 9.882 15.384072000000002C9.968976000000001 15.480048 10.069512 15.507264 10.187376 15.466752C10.2378 15.449424 10.292664 15.421008 10.309272 15.403608C10.325904 15.386232 10.536071999999999 14.962104000000002 10.776336 14.461104C11.417184 13.12476 11.466408 13.028856000000001 11.563464 12.927936C11.888544 12.589872 12.456552 12.631704000000001 12.713544 13.012632C12.751895999999999 13.069488 13.023768 13.6182 13.317672 14.232000000000001C13.85796 15.360312 13.92576 15.476688 14.046384 15.482664C14.152175999999999 15.487896 14.217623999999999 15.474816 14.275608 15.436800000000002C14.338560000000001 15.395567999999999 14.4 15.27408 14.4 15.190848C14.4 15.162984000000002 14.076792000000001 14.468520000000002 13.681728 13.6476C13.286688 12.826704000000001 12.951336000000001 12.106656000000001 12.93648 12.04752C12.918287999999999 11.974944 12.911856 11.659152 12.916751999999999 11.076L12.924 10.212 12.9912 10.075128000000001C13.073856000000001 9.90684 13.257408000000002 9.736583999999999 13.41072 9.686016C13.473024 9.665448 14.107199999999999 9.518352 14.82 9.359112000000001C15.532800000000002 9.199872 16.13868 9.054744 16.166424 9.0366C16.194144 9.018431999999999 16.23588 8.963424 16.259184 8.914344C16.309992 8.80728 16.283592 8.681808 16.192248 8.595984C16.071648 8.482704 16.090392 8.480039999999999 14.506392 8.834232C12.637848 9.252024 12.589056 9.262152 12.325655999999999 9.286488C11.939424 9.322175999999999 11.728944 9.28716 9.96 8.892768C9.0426 8.68824 8.2758 8.517288 8.256 8.512872C8.2362 8.508456 8.18496 8.512272 8.142144 8.521368M5.512512 17.604048C5.3083919999999996 17.66016 5.128512 17.766792000000002 4.9666559999999995 17.92764C4.800504 18.092760000000002 4.708776 18.235488 4.6470959999999994 18.424944C4.62648 18.488232 4.35984 19.539 4.05456 20.76C3.5497919999999996 22.778904 3.5004720000000002 22.994136 3.510168 23.136C3.5283360000000004 23.402231999999998 3.6855119999999997 23.632176 3.932136 23.75328C4.047456 23.80992 4.097040000000001 23.819808 4.26 23.818704C4.41972 23.817624 4.4729280000000005 23.806584 4.576488 23.753064000000002C4.734888000000001 23.6712 4.8566400000000005 23.5458 4.9286639999999995 23.390328C4.95984 23.323056 5.042136 23.038512 5.111544 22.758L5.237736 22.248 5.841432 22.248L6.445128 22.248 6.573816 22.77C6.644592 23.057088 6.730344 23.34984 6.7643759999999995 23.42052C6.914064000000001 23.731392 7.28412 23.894664 7.6186560000000005 23.797416C7.8651599999999995 23.725752 7.985904 23.623224 8.114856000000001 23.376C8.228976000000001 23.157192000000002 8.226647999999999 23.144856 7.601688000000001 20.655552C7.170672000000001 18.938807999999998 7.017744 18.365664 6.958704000000001 18.245712C6.816288 17.95644 6.482544 17.687472 6.159168 17.60136C6.005712 17.560512 5.665776 17.561904 5.512512 17.604048M10.205592000000001 17.608032C10.070976 17.655672 9.86568 17.845632 9.794256 17.988623999999998C9.752064 18.073104 9.733080000000001 18.16248 9.721032000000001 18.333336C9.712104 18.4602 9.69168 18.588192000000003 9.675672 18.61776C9.630408000000001 18.701352 9.533976000000001 18.736152 9.304464 18.751608C9.054384 18.76848 8.891208 18.834216 8.750712 18.974712C8.460696 19.264728 8.464488000000001 19.750439999999998 8.759016 20.036256C8.940792 20.212656 9.037776000000001 20.244 9.402000000000001 20.244L9.72 20.244 9.72 21.282L9.72 22.32 9.466632 22.32C9.327264000000001 22.32 9.162576 22.3326 9.100632 22.347984C8.542824000000001 22.48656 8.344896 23.195472 8.750712 23.601288C8.802024 23.6526 8.903400000000001 23.722800000000003 8.976 23.757288L9.108 23.82 10.476 23.82L11.844 23.82 11.966376 23.764608C12.109848 23.699664 12.261144 23.551992 12.339984000000001 23.400000000000002C12.38652 23.310264 12.396 23.255448 12.396 23.076C12.396 22.826232 12.351792000000001 22.713888 12.18636 22.543392C12.029448 22.381680000000003 11.897232 22.337088 11.538 22.324800000000003L11.232000000000001 22.314336 11.232000000000001 20.31756C11.232000000000001 18.305136 11.225304 18.125472 11.144400000000001 17.96904C11.078208 17.841048 10.931952 17.704488 10.788 17.63628C10.670304 17.580503999999998 10.613328 17.568384 10.476 17.56992C10.3836 17.570952000000002 10.26192 17.588088 10.205592000000001 17.608032M14.245415999999999 17.616552000000002C14.103072000000001 17.672112 13.923192000000002 17.842560000000002 13.848 17.993136000000003C13.808184 18.072864 13.788912 18.165456 13.777224000000002 18.333336C13.752696 18.685584000000002 13.707888 18.729384 13.34736 18.75348C13.108968 18.76944 12.944808 18.836592 12.806712000000001 18.974712C12.514296 19.267128 12.518424 19.742424 12.815976000000001 20.039976C12.98784 20.21184 13.089048 20.244 13.458 20.244L13.776 20.244 13.776 21.282L13.776 22.32 13.522632 22.32C13.215528 22.32 13.082472 22.350072 12.921047999999999 22.45596C12.706199999999999 22.596912 12.5934 22.8102 12.592535999999999 23.077104000000002C12.591384 23.438568 12.8376 23.739336 13.190520000000001 23.807568C13.288728 23.826552 13.724736000000002 23.832648000000002 14.616 23.827464000000003C15.873216000000001 23.820144 15.902351999999999 23.818920000000002 16.012224 23.768136000000002C16.180176 23.69052 16.327776 23.541528000000003 16.403184 23.373528C16.460208 23.246448 16.467744 23.20296 16.46028 23.043576C16.450295999999998 22.829520000000002 16.393488 22.699152 16.24236 22.543392C16.085448 22.381680000000003 15.953232 22.337088 15.594000000000001 22.324800000000003L15.288 22.314336 15.288 20.31756C15.288 18.995208 15.279264 18.272712000000002 15.262152 18.178416C15.216263999999999 17.925624 15.068496000000001 17.740056 14.821560000000002 17.625072000000003C14.665608 17.552448 14.418936 17.5488 14.245415999999999 17.616552000000002M16.328592 17.594184000000002C16.129704 17.651808 15.897072000000001 17.889096000000002 15.840792 18.091752C15.808968 18.20628 15.809472 18.419496000000002 15.841800000000001 18.535968C15.855839999999999 18.586536 16.211807999999998 19.144944000000002 16.632816000000002 19.77684L17.398272 20.925768 17.405136000000002 22.108871999999998L17.412 23.292 17.476128 23.413512C17.553216 23.559576 17.701944 23.699256000000002 17.853072 23.767512C18.010752 23.838744 18.280968 23.836992 18.444 23.763672C18.583488 23.700936 18.75252 23.545608 18.816984 23.420904C18.898056 23.264112 18.911640000000002 23.055744 18.911808 21.966504L18.912 20.904984000000002 19.67592 19.7574C20.366112 18.720528 20.442576 18.595872 20.468184 18.465624C20.519856 18.203064 20.431872 17.930376000000003 20.241408000000003 17.762736C20.085192000000003 17.625216 19.981752 17.583000000000002 19.776 17.572752C19.552032 17.561616 19.37304 17.622072000000003 19.234968 17.755536C19.182744 17.806032000000002 18.919632 18.17868 18.650256000000002 18.58368C18.380904 18.988656 18.154104 19.319736000000002 18.146256 19.3194C18.138432 19.319064 17.916 18.992616 17.652 18.593976C17.388 18.195336 17.127792 17.824416 17.073768 17.76972C16.904256 17.598096 16.579272 17.521536 16.328592 17.594184000000002M5.730072 20.279496C5.668992 20.523432 5.62236 20.726352 5.6264400000000006 20.730456C5.6305439999999995 20.734536 5.730408 20.734752 5.848368 20.730936L6.06288 20.724 5.952 20.28L5.84112 19.836000000000002 5.730072 20.279496" stroke="none" fill="#fff" fill-rule="evenodd" stroke-width="0.024"></path>
</svg>