<svg xmlns="http://www.w3.org/2000/svg" viewBox="0 0 75 75"><defs><style>.cls-1{fill:#fff;}</style></defs><title>icon-social-media</title><g id="Layer_2" data-name="Layer 2"><g id="Layer_1-2" data-name="Layer 1"><path class="cls-1" d="M56.25,0a12.5,12.5,0,1,0,12.5,12.5A12.5,12.5,0,0,0,56.25,0Z"/><path class="cls-1" d="M31.25,3.13a9.38,9.38,0,1,0,9.38,9.38,9.38,9.38,0,0,0-9.37-9.37Z"/><path class="cls-1" d="M12.5,6.25a6.25,6.25,0,1,0,6.25,6.25A6.25,6.25,0,0,0,12.5,6.25Z"/><path class="cls-1" d="M54.32,28.13a22.06,22.06,0,0,0-10.64,2.63A16.46,16.46,0,0,0,31,24.81a16,16,0,0,0-7.87,2,13.76,13.76,0,0,0-10.8-5.1C6.39,21.75,0,25.72,0,32.15V45.31a1.57,1.57,0,0,0,1.56,1.56H15.63V57.81a1.57,1.57,0,0,0,1.56,1.56H34.38V73.44A1.57,1.57,0,0,0,35.94,75h37.5A1.56,1.56,0,0,0,75,73.44V46.29C75,36.1,65.91,28.13,54.32,28.13ZM52.46,54.27a4.22,4.22,0,0,1-.06.68l7.26,4.36a4.23,4.23,0,1,1-1.58,2.62l-7.26-4.36a4.17,4.17,0,1,1,0-6.62l7.26-4.36a4.18,4.18,0,1,1,1.58,2.62L52.4,53.59A4.22,4.22,0,0,1,52.46,54.27Z"/></g></g></svg>