<svg xmlns="http://www.w3.org/2000/svg" viewBox="0 0 75 69.28"><defs><style>.cls-1{fill:#fff;}</style></defs><title>icon-youtube</title><g id="Layer_2" data-name="Layer 2"><g id="Layer_1-2" data-name="Layer 1"><path class="cls-1" d="M67,0H8A8,8,0,0,0,0,8V47.2a8,8,0,0,0,8,8H67a8,8,0,0,0,8-8V8A8,8,0,0,0,67,0Zm5.19,47.1A5.24,5.24,0,0,1,67,52.33H8.07A5.24,5.24,0,0,1,2.83,47.1V8.29A5.24,5.24,0,0,1,8.07,3.06H67a5.24,5.24,0,0,1,5.24,5.24Z"/><polygon class="cls-1" points="5.05 58.68 5.05 69.28 14.15 63.98 5.05 58.68"/><rect class="cls-1" x="18.58" y="62.48" width="39.09" height="2.93"/><rect class="cls-1" x="62.34" y="59.08" width="2.77" height="9.73"/><rect class="cls-1" x="67.17" y="59.16" width="2.93" height="9.65"/><path class="cls-1" d="M58,19.2s-.4-3-1.65-4.39a5.71,5.71,0,0,0-4.15-1.87c-5.8-.45-14.49-.45-14.49-.45h0s-8.7,0-14.49.45a5.72,5.72,0,0,0-4.15,1.87c-1.24,1.34-1.65,4.39-1.65,4.39A71.18,71.18,0,0,0,17,26.35V29.7a71.15,71.15,0,0,0,.41,7.15s.4,3,1.65,4.38c1.58,1.76,3.65,1.71,4.57,1.89,3.31.34,14.09.44,14.09.44s8.7,0,14.5-.46a5.74,5.74,0,0,0,4.15-1.87C57.6,39.9,58,36.85,58,36.85a71.19,71.19,0,0,0,.41-7.15V26.35A71.19,71.19,0,0,0,58,19.2ZM32.54,35.8V20.26L45.49,28Z"/></g></g></svg>