<svg xmlns="http://www.w3.org/2000/svg" viewBox="0 0 24 24" version="1.1">
    <path d="M6.25716 0.506808C5.638824 0.566376 5.063616000000001 0.8412240000000001 4.60752 1.294992C4.296936 1.603992 4.073184 1.9627440000000003 3.936408 2.37096C3.78804 2.813832 3.79224 2.691408 3.791688 6.5760000000000005C3.791112 10.441944000000001 3.7964160000000002 10.289976000000001 3.652104 10.575887999999999C3.5225039999999996 10.832592 3.2772000000000006 11.057304 3 11.173200000000001C2.9083680000000003 11.211528 2.806512 11.220312 2.328 11.231184C1.771992 11.243808000000001 1.76208 11.244936 1.628136 11.31072C1.478904 11.383992000000001 1.3518000000000001 11.510112000000001 1.267104 11.66892C1.220904 11.755560000000001 1.212144 11.80836 1.212144 12C1.212144 12.191640000000001 1.220904 12.24444 1.267104 12.33108C1.3518000000000001 12.489888 1.478904 12.616008 1.628136 12.68928C1.76208 12.755064 1.771992 12.756192 2.328 12.768816C2.806512 12.779688 2.9083680000000003 12.788471999999999 3 12.826800000000002C3.2772000000000006 12.942696 3.5225039999999996 13.167408000000002 3.652104 13.424112C3.7964160000000002 13.710023999999999 3.791112 13.558056 3.791688 17.424C3.79224 21.308592 3.78804 21.186168 3.936408 21.62904C4.234464 22.518696000000002 4.974528 23.201616 5.892 23.433624C6.20172 23.51196 6.879143999999999 23.543856 7.167264 23.493672C7.427256 23.448384 7.682208 23.220744 7.751208 22.972248C7.787424000000001 22.841904 7.781256 22.632 7.737456 22.503432C7.688472 22.359648 7.50456 22.157136 7.352712 22.079736C7.244472 22.024584 7.202064 22.019136000000003 6.768 22.004640000000002C6.510599999999999 21.996048 6.2568 21.975863999999998 6.204 21.95976C5.7894 21.833448 5.449104 21.483024 5.338872 21.068856C5.309904 20.960016 5.3045279999999995 20.401296 5.304264 17.472C5.303952 13.990968 5.296704 13.64472 5.217624000000001 13.332C5.109432 12.9042 4.893552 12.498096 4.589256 12.15L4.458144 12 4.589256 11.85C4.893552 11.501904 5.109432 11.0958 5.217624000000001 10.668000000000001C5.296704 10.35528 5.303952 10.009032 5.304264 6.5280000000000005C5.3045279999999995 3.598704 5.309904 3.039984 5.338872 2.931144C5.449104 2.516976 5.7894 2.166552 6.204 2.0402400000000003C6.2568 2.024136 6.510599999999999 2.003952 6.768 1.99536C7.202064 1.9808640000000002 7.244472 1.975416 7.352712 1.920264C7.50456 1.842864 7.688472 1.640352 7.737456 1.4965680000000001C7.781256 1.368 7.787424000000001 1.158096 7.751208 1.027752C7.682208 0.7792560000000001 7.427256 0.5516160000000001 7.167264 0.506328C6.995664 0.47644800000000004 6.569903999999999 0.47666400000000003 6.25716 0.506808M16.817256 0.50736C16.664112 0.536712 16.480704 0.652992 16.380504 0.7842480000000001C16.090680000000003 1.163808 16.220208 1.698816 16.656 1.9223040000000002C16.753728 1.972416 16.80852 1.979208 17.232 1.9938C17.751839999999998 2.011704 17.901312 2.0436720000000004 18.119304 2.183544C18.270984000000002 2.280888 18.488544 2.51508 18.56196 2.660064C18.7038 2.940144 18.695976 2.717688 18.696384 6.478368000000001C18.6966 8.54424 18.706296 10.039104 18.720576 10.211424000000001C18.773208 10.8468 19.008312 11.391384 19.443552 11.886000000000001L19.543848 12 19.443552 12.114C19.008312 12.608616000000001 18.773208 13.1532 18.720576 13.788576C18.706296 13.960896 18.6966 15.45576 18.696384 17.521632C18.695976 21.282312 18.7038 21.059856 18.56196 21.339936C18.488544 21.484920000000002 18.270984000000002 21.719112 18.119304 21.816456000000002C17.901312 21.956328 17.751839999999998 21.988296 17.232 22.0062C16.80852 22.020792 16.753728 22.027584 16.656 22.077696C16.220208 22.301184 16.090680000000003 22.836192 16.380504 23.215752C16.486104 23.354064 16.663512 23.462088 16.838088 23.494368C17.1084 23.544336 17.800008000000002 23.511336 18.108 23.433792C19.031592 23.201232 19.76424 22.525608000000002 20.072424 21.622248000000003C20.210568 21.217296 20.20776 21.303576 20.208312000000003 17.448C20.208888 13.556616000000002 20.2026 13.728984000000002 20.35524 13.41816C20.462903999999998 13.198920000000001 20.688912000000002 12.980136000000002 20.923416 12.868152L21.108 12.780000000000001 21.672 12.766992C22.31616 12.752136000000002 22.396008000000002 12.732528000000002 22.57836 12.544608C22.88544 12.22812 22.88544 11.771880000000001 22.57836 11.455392C22.396008000000002 11.267472 22.31616 11.247864 21.672 11.233008L21.108 11.22 20.923416 11.131848C20.688912000000002 11.019864 20.462903999999998 10.80108 20.35524 10.581840000000001C20.2026 10.271016 20.208888 10.443384 20.208312000000003 6.5520000000000005C20.20788 3.4919759999999997 20.20284 2.981328 20.171112 2.785752C20.000928 1.7363279999999999 19.182024 0.84096 18.151968 0.57804C17.80968 0.49068 17.10024 0.45311999999999997 16.817256 0.50736" stroke="none" fill="#fff" fill-rule="evenodd" stroke-width="0.024"></path>
</svg>