<svg xmlns="http://www.w3.org/2000/svg" viewBox="0 0 24 24" version="1.1">
    <path d="M1.861992 1.274472C1.5978 1.3131840000000001 1.4288399999999999 1.36704 1.176 1.493136C0.9544800000000001 1.603608 0.894792 1.647912 0.682536 1.8594C0.356184 2.184576 0.19668000000000002 2.468448 0.06508800000000001 2.958384L0.012 3.156 0.012 12.036L0.012 20.916 0.065352 21.12C0.09470400000000001 21.2322 0.173568 21.433512 0.240624 21.56736C0.509784 22.104744 1.0108320000000002 22.493184 1.668 22.673976L1.9080000000000001 22.740000000000002 11.904 22.746816C18.803424 22.75152 21.960312000000002 22.745808 22.094712 22.72836C22.396752 22.689144 22.551912 22.642344 22.815360000000002 22.510896C23.290344 22.27392 23.676096 21.822456 23.860152 21.288096C23.91744 21.121752 23.976 20.871552 23.976 20.793096000000002C23.976 20.759256 23.986439999999998 20.739624 24 20.748C24.015984000000003 20.757888 24.024 17.836728 24.024 12.002832C24.024 6.188712 24.015936 3.23784 24 3.228C23.986800000000002 3.21984 23.976 3.177744 23.976 3.134424C23.976 2.984184 23.880432000000003 2.674728 23.75928 2.43264C23.490408000000002 1.8953760000000002 22.989264 1.50684 22.332 1.3260239999999999L22.092 1.26 12.048 1.2568320000000002C6.4849440000000005 1.25508 1.94064 1.262928 1.861992 1.274472M1.9369679999999998 2.798688C1.7866799999999998 2.844888 1.652928 2.980272 1.58076 3.15924C1.524024 3.2999280000000004 1.524 3.300648 1.51716 4.518L1.51032 5.736 11.999976 5.736L22.489632 5.736 22.482816 4.482L22.476 3.228 22.419552 3.1133520000000003C22.34916 2.970408 22.248672000000003 2.892528 22.039272 2.818632L21.876 2.761008 11.964 2.762184C3.3042239999999996 2.763192 2.03748 2.7678000000000003 1.9369679999999998 2.798688M0.01188 12.024000000000001C0.01188 16.8486 0.01464 18.822288 0.018000000000000002 16.41C0.02136 13.997688 0.02136 10.050288 0.018000000000000002 7.638C0.01464 5.225688 0.01188 7.199400000000001 0.01188 12.024000000000001M1.517832 14.01L1.524 20.772000000000002 1.580448 20.886648C1.6508399999999999 21.029591999999997 1.751328 21.107471999999998 1.960728 21.181368L2.124 21.238992 12.025632 21.239496000000003C20.914128 21.239952000000002 21.940152 21.236184 22.052976 21.20268C22.214328 21.154752 22.344504 21.026136 22.41924 20.84076L22.476 20.7 22.482167999999998 13.974L22.488336 7.248 12 7.248L1.511664 7.248 1.517832 14.01M7.944 9.0264C7.298304 9.09876 6.7269120000000004 9.270144 6.13992 9.567552000000001C4.652016000000001 10.321368000000001 3.629016 11.701944000000001 3.332688 13.356C3.257808 13.773984000000002 3.251232 14.671512 3.3200640000000003 15.081072C3.771144 17.765544000000002 6.1577519999999994 19.669512 8.844 19.487904C10.067424 19.405176 11.14836 18.944952 12.063696 18.117024C12.973968 17.293680000000002 13.586616000000001 16.086456000000002 13.729392 14.834712000000001C13.767168 14.503488 13.74624 13.668528000000002 13.692936 13.38C13.496184000000001 12.315192000000001 13.061184 11.437464 12.346295999999999 10.662840000000001C11.665848 9.925536000000001 10.644984000000001 9.341184 9.65244 9.120816C9.16272 9.012096000000001 8.431968 8.971704 7.944 9.0264M16.264752 9.53832C15.954504 9.650088 15.769295999999999 9.915096 15.768768000000001 10.248C15.768264 10.551576 15.911112 10.783848 16.181328 10.918872L16.327656 10.992 18.00984 10.991760000000001L19.692 10.991520000000001 19.815936 10.933824000000001C19.961976 10.865832 20.112168 10.72296 20.188944 10.578984C20.267136 10.432368 20.268864 10.066728 20.192016 9.92304C20.122536 9.793104 19.969079999999998 9.638328 19.842984 9.570984L19.740000000000002 9.516 18.048000000000002 9.51072C16.665864 9.506424 16.339296 9.511488 16.264752 9.53832M7.5600000000000005 10.63044C6.90468 10.807296 6.339816 11.132208 5.867616 11.603904C5.302056 12.168864000000001 4.928088 12.907055999999999 4.8103679999999995 13.690895999999999C4.768008 13.972871999999999 4.763424 14.511384 4.8012239999999995 14.762904C4.997136 16.06644 5.83536 17.170968 7.010928000000001 17.674584C8.015616 18.104976 9.093048 18.095088 10.078944 17.64636C10.224912 17.579904 10.507368000000001 17.425032 10.558752 17.383248000000002C10.56468 17.378424 9.964128 16.767336 9.224232 16.025256000000002C8.16732 14.965248 7.866624000000001 14.650272000000001 7.821456 14.556000000000001L7.764 14.436 7.7571840000000005 12.51C7.75344 11.450712000000001 7.742640000000001 10.584984 7.7331840000000005 10.58616C7.723728 10.58736 7.6457999999999995 10.607280000000001 7.5600000000000005 10.63044M9.264 12.258096L9.264 13.932192 10.451039999999999 15.119040000000002C11.103912000000001 15.771816 11.642304000000001 16.300968 11.647464 16.294944C11.695176 16.23924 11.871552000000001 15.902688 11.948736 15.72C12.267984 14.964599999999999 12.335208 14.135856 12.140448 13.356C11.84976 12.192 11.037144 11.244072 9.948 10.798488C9.766656000000001 10.724304 9.325008 10.584624 9.27 10.584071999999999C9.266712 10.584024 9.264 11.337336 9.264 12.258096M16.365672 13.512312000000001C16.160304 13.54704 15.968424 13.687776 15.848640000000001 13.891560000000002C15.793776 13.984872 15.780816 14.039328 15.77244 14.211672C15.763512 14.395488 15.769344000000002 14.434608 15.823128 14.552136C15.901895999999999 14.724167999999999 16.075464 14.889864 16.242264 14.952288C16.369008 14.999712000000002 16.415112 15.000792 18.04416 14.99448L19.716 14.988 19.82496 14.934287999999999C19.966392 14.864591999999998 20.120736 14.710464000000002 20.188848 14.57088C20.261352 14.42232 20.277 14.149920000000002 20.221416 14.004336C20.12436 13.750248000000001 19.90044 13.5594 19.645584 13.513608C19.479864 13.483800000000002 16.540992 13.482648000000001 16.365672 13.512312000000001M16.299336 17.523144C16.107864 17.579184 15.913319999999999 17.752512 15.82212 17.948328C15.769272 18.061776 15.763512 18.100920000000002 15.772368 18.286008000000002C15.783959999999999 18.528792 15.83808 18.645768 16.013712 18.807648C16.226760000000002 19.004016 16.141224 18.996 18.024 18.996C19.682784 18.996 19.692624 18.995712 19.804224 18.944136C19.972176 18.86652 20.119775999999998 18.717528 20.195184 18.549528000000002C20.252208 18.422448 20.259743999999998 18.37896 20.252280000000003 18.219576C20.238888000000003 17.932968 20.095776 17.71032 19.836000000000002 17.571936L19.716 17.508 18.048000000000002 17.503776C17.012040000000002 17.501136000000002 16.349448 17.50848 16.299336 17.523144" stroke="none" fill="#fff" fill-rule="evenodd" stroke-width="0.024"></path>
</svg>