<svg xmlns="http://www.w3.org/2000/svg" viewBox="0 0 24 24" version="1.1">
    <path d="M0.516 0.031872000000000004C0.316944 0.10992 0.16456800000000002 0.24604800000000002 0.06804 0.432L0.012 0.54 0.005928 11.973672L-0.000144 23.407368 0.061176 23.541672000000002C0.14196 23.718576 0.267288 23.845992 0.444 23.930832000000002L0.588 23.999952 12 23.999736000000002L23.412 23.99952 23.544 23.938344C23.723664 23.855088 23.845392 23.73156 23.942448 23.53404L24.024 23.368056 24.018048 11.954039999999999L24.012072 0.54 24.000048 11.82C23.990376 20.871888000000002 23.982096000000002 23.080560000000002 23.95812 23.0016C23.885328 22.761984 23.638032 22.556208 23.370672000000003 22.512816C23.269968 22.496472 19.619712000000003 22.488312 12.366 22.488192L1.512 22.488 1.511808 11.634C1.5116880000000001 4.380288 1.503528 0.730032 1.487184 0.629328C1.427232 0.2598 1.113648 -0.0027600000000000003 0.7377360000000001 0.001824C0.655392 0.002832 0.5556 0.016344 0.516 0.031872000000000004M0.011904 12C0.011904 18.289800000000003 0.01464 20.862912 0.018000000000000002 17.718C0.02136 14.573112 0.02136 9.426912 0.018000000000000002 6.282C0.01464 3.137112 0.011904 5.7102 0.011904 12M9.708 4.512096C9.078479999999999 4.5655920000000005 8.489688000000001 4.77456 7.943232000000001 5.1384C7.649208 5.334168 7.1922239999999995 5.78976 6.98712 6.091584C6.70416 6.507984 6.481728 7.052136 6.396672000000001 7.5360000000000005C6.375576000000001 7.655928 6.2770079999999995 9.198888 6.157512 11.28C6.045696 13.227 5.943048 14.931096 5.929392 15.066863999999999C5.8392479999999995 15.962928 5.479655999999999 16.829208 4.899096 17.548848C4.658424 17.847168 4.309584 18.15648 3.7584 18.560304000000002C3.06216 19.0704 3.012336 19.133136 3.012336 19.5C3.012336 19.678944 3.021744 19.733688 3.0672 19.81908C3.249312 20.161176 3.6279120000000002 20.330712000000002 3.9646320000000004 20.220864C4.105968 20.174784 4.194432 20.11536 4.872 19.61136C5.2158 19.35564 5.426304 19.17684 5.665176000000001 18.937632C6.614568000000001 17.986895999999998 7.217544 16.776144 7.404336000000001 15.445512C7.423871999999999 15.306287999999999 7.531464 13.5858 7.643424 11.622192C7.755384 9.658584 7.858824 7.966824000000001 7.873272 7.862736C7.941888 7.368936 8.143992 6.9760800000000005 8.51136 6.622368000000001C8.955528 6.194688000000001 9.346416000000001 6.036456 10.044 6.0018720000000005C10.442976000000002 5.98212 10.522824 5.956824 10.70436 5.792808C11.005968 5.520336 11.010168 5.015592 10.713288 4.718712C10.514592 4.520016 10.251312 4.465896 9.708 4.512096M15.108 4.513656C14.487528000000001 4.562328 13.891584000000002 4.773288 13.343231999999999 5.1384C13.049208 5.334168 12.592224000000002 5.78976 12.38712 6.091584C12.10416 6.507984 11.881728 7.052136 11.796672000000001 7.5360000000000005C11.775576000000001 7.655928 11.677007999999999 9.198888 11.557512 11.28C11.445696 13.227 11.343048000000001 14.931096 11.329392 15.066863999999999C11.239248 15.962928 10.879656 16.829208 10.299096 17.548848C10.058424 17.847168 9.709584 18.15648 9.1584 18.560304000000002C8.462159999999999 19.0704 8.412336 19.133136 8.412336 19.5C8.412336 19.678944 8.421744 19.733688 8.4672 19.81908C8.649312 20.161176 9.027912 20.330712000000002 9.364632 20.220864C9.505968 20.174784 9.594432 20.11536 10.272 19.61136C10.6158 19.35564 10.826304 19.17684 11.065176 18.937632C12.014568 17.986895999999998 12.617544 16.776144 12.804336000000001 15.445512C12.823872 15.306287999999999 12.931464000000002 13.5858 13.043424 11.622192C13.155384 9.658584 13.258824 7.966824000000001 13.273272 7.862736C13.341888 7.368936 13.543992 6.9760800000000005 13.91136 6.622368000000001C14.132832000000002 6.409128000000001 14.264616000000002 6.315624000000001 14.502144 6.203232000000001C14.7414 6.0900240000000005 15.01164 6.02616 15.324 6.009024C15.646368 5.991336 15.888792 6.023232 16.18956 6.122976C16.893504 6.356400000000001 17.472072 7.009152 17.612136000000003 7.728C17.651352 7.929288000000001 17.652312000000002 7.944024 17.855952000000002 11.544C17.960856 13.3986 18.057959999999998 15.036984000000002 18.071712 15.184872C18.205368 16.622376000000003 18.836351999999998 17.953176 19.863696 18.964176C20.19024 19.285536 20.300736 19.376424 20.88 19.800312C21.443544 20.212680000000002 21.502464 20.242896 21.744 20.243351999999998C22.05372 20.243928 22.304568 20.083536 22.435248 19.801368C22.558632 19.534992 22.49412 19.1808 22.28532 18.978024C22.236168 18.930287999999997 21.988968 18.740256000000002 21.735984000000002 18.555744C21.483 18.371208 21.1896 18.142824 21.084 18.048192C20.266224 17.315328 19.719912 16.265184 19.58568 15.168000000000001C19.571952000000003 15.055800000000001 19.468584 13.3566 19.355976000000002 11.391984C19.243392 9.427368000000001 19.14096 7.74744 19.128384 7.658784C18.916464 6.16452 17.783496000000003 4.925904 16.325736000000003 4.594824C16.102344000000002 4.5440879999999995 15.538992 4.481472 15.396 4.49148C15.3696 4.493328 15.24 4.503312 15.108 4.513656M13.917167999999998 16.641144C13.5324 16.77864 13.316424 17.175768 13.424424 17.54724C13.558272 18.00768 14.421024 19.013688 15.144 19.552319999999998C15.826272 20.060664 16.009104 20.182992 16.146288 20.222856C16.494696 20.324136000000003 16.877088 20.14284 17.035248 19.801368C17.158704 19.534824 17.09412 19.1808 16.884984000000003 18.977688C16.835664 18.929784 16.64244 18.780096 16.455648 18.645048C15.949152 18.278904 15.826968 18.180408 15.567456 17.92908C15.283488 17.654064 15.112680000000001 17.448768 14.886768000000002 17.110896C14.793672 16.971696 14.67936 16.824312000000003 14.632728 16.783368C14.458392 16.630296 14.130096 16.56504 13.917167999999998 16.641144" stroke="none" fill="#fff" fill-rule="evenodd" stroke-width="0.024"></path>
</svg>