<svg xmlns="http://www.w3.org/2000/svg" viewBox="0 0 75 97.97"><defs><style>.cls-1{fill:#fff;}</style></defs><title>icon-digital-ad</title><g id="Layer_2" data-name="Layer 2"><g id="Layer_1-2" data-name="Layer 1"><path class="cls-1" d="M45,83.82H72.79a1.83,1.83,0,0,0,2.21-2,2.23,2.23,0,0,0-2.21-2.4H2.21A2.23,2.23,0,0,0,0,81.81a1.83,1.83,0,0,0,2.21,2H30l-11,11L22.06,98,36.21,83.82h2.58L52.94,98l3.12-3.12Z"/><path class="cls-1" d="M66.18,13.24H8.82S0,13.24,0,22.06V66.18C0,75,8.82,75,8.82,75H66.18S75,75,75,66.18V22.06C75,13.24,66.18,13.24,66.18,13.24Zm4.41,52.94c0,4.41-4.41,4.41-4.41,4.41H8.82s-4.41,0-4.41-4.41V22.06c0-4.41,4.41-4.41,4.41-4.41H66.18s4.41,0,4.41,4.41Z"/><polygon class="cls-1" points="39.71 4.41 39.94 0 35.29 0 35.29 4.41 30.88 4.41 30.88 8.82 44.12 8.82 44.12 4.41 39.71 4.41"/><rect class="cls-1" x="44.12" y="57.35" width="22.06" height="4.41"/><rect class="cls-1" x="8.82" y="22.06" width="57.35" height="8.82"/><rect class="cls-1" x="44.12" y="44.12" width="22.06" height="4.41"/><path class="cls-1" d="M22.06,66.18A13.24,13.24,0,0,0,35.29,52.94H22.06V39.71a13.24,13.24,0,0,0,0,26.47Z"/></g></g></svg>